<?xml version="1.0" encoding="utf-8"?>
<!-- Generator: Adobe Illustrator 24.2.0, SVG Export Plug-In . SVG Version: 6.00 Build 0)  -->
<svg version="1.1" id="Layer_1" xmlns="http://www.w3.org/2000/svg" xmlns:xlink="http://www.w3.org/1999/xlink" x="0px" y="0px"
	 viewBox="0 0 697 112" style="enable-background:new 0 0 697 112;" xml:space="preserve">
<style type="text/css">
	.st0{fill:#FFFFFF;}
</style>
<g>
	<g>
		<path class="st0" d="M97.51,22.84v66.32H82.35V22.84H97.51z"/>
		<path class="st0" d="M140.24,77.13l-15.63-29.46v41.5h-14.59V22.84h15.06l19.8,37.99l19.8-37.99h15.06v66.32h-14.59v-41.5
			l-15.63,29.46H140.24z"/>
		<path class="st0" d="M191.88,22.84h44.34v12.03h-29.27v14.21h25.96v12.03h-25.96v16.01h30.13v12.03h-45.19V22.84z"/>
		<path class="st0" d="M246.07,22.84h14.69l26.15,42.44V22.84h14.59v66.32h-14.68l-26.15-42.44v42.44h-14.59V22.84z"/>
		<path class="st0" d="M346.69,71.44c0-4.45-1.99-6.92-14.4-10.42c-13.93-3.98-19.9-10.99-19.9-20.56
			c0-10.99,8.15-18.76,22.64-18.76c9.66,0,18.47,3.69,24.35,10.71l-10.14,7.48c-3.22-3.79-7.86-6.06-12.79-6.06
			c-5.97,0-8.81,2.46-8.81,6.06c0,3.98,2.84,6.54,13.07,9.66c14.4,4.36,21.22,9.66,21.22,20.84c0,11.94-9.57,19.89-24.63,19.89
			c-11.37,0-20.94-4.17-27.76-11.84l10.8-7.96c4.07,4.55,9.66,7.67,16.2,7.67C342.99,78.17,346.69,75.52,346.69,71.44z"/>
		<path class="st0" d="M386.29,22.84v66.32h-15.16V22.84H386.29z"/>
		<path class="st0" d="M427.03,90.29c-19.61,0-31.36-14.78-31.36-34.29s11.75-34.29,31.36-34.29c19.61,0,31.36,14.78,31.36,34.29
			S446.64,90.29,427.03,90.29z M427.03,77.7c9.85,0,16.11-8.34,16.11-21.7s-6.25-21.7-16.11-21.7c-9.85,0-16.11,8.34-16.11,21.7
			S417.18,77.7,427.03,77.7z"/>
		<path class="st0" d="M467.39,22.84h14.69l26.15,42.44V22.84h14.59v66.32h-14.68l-26.15-42.44v42.44h-14.59V22.84z"/>
		<path class="st0" d="M568.01,71.44c0-4.45-1.99-6.92-14.4-10.42c-13.93-3.98-19.9-10.99-19.9-20.56
			c0-10.99,8.15-18.76,22.64-18.76c9.66,0,18.47,3.69,24.35,10.71l-10.14,7.48c-3.22-3.79-7.86-6.06-12.79-6.06
			c-5.97,0-8.81,2.46-8.81,6.06c0,3.98,2.84,6.54,13.07,9.66c14.4,4.36,21.22,9.66,21.22,20.84c0,11.94-9.57,19.89-24.63,19.89
			c-11.37,0-20.94-4.17-27.76-11.84l10.8-7.96c4.07,4.55,9.66,7.67,16.2,7.67C564.31,78.17,568.01,75.52,568.01,71.44z"/>
		<path class="st0" d="M656.97,89.16l-13.83-23.49L629.4,89.16h-16.48l20.56-34.2l-19.14-32.11h16.48l12.31,20.94l12.41-20.94h16.48
			L652.8,54.96l20.65,34.2H656.97z"/>
	</g>
	<g>
		<path class="st0" d="M23.55,31.77c0-3.35,0-6.63,0-9.96c0.16-0.01,0.3-0.03,0.45-0.03c11.11,0,22.22-0.05,33.33,0.03
			c4.59,0.03,8.48,1.91,11.63,5.24c2.5,2.64,3.92,5.82,4.38,9.42c0.09,0.7,0.12,1.42,0.12,2.13c0.01,6.05,0.01,12.1,0,18.14
			c0,4.93,0.01,9.87-0.01,14.8c-0.01,3.59-0.99,6.89-3.11,9.81c-2.76,3.8-6.48,6.1-11.15,6.78c-0.89,0.13-1.79,0.2-2.69,0.2
			c-6.39,0.02-12.79,0.01-19.18,0.01c-0.14,0-0.27,0-0.44,0c0-13.32,0-26.6,0-39.91c3.31,0,6.61,0,9.97,0c0,9.97,0,19.92,0,29.92
			c0.2,0,0.35,0,0.51,0c2.98,0,5.96-0.01,8.94,0.01c2.49,0.02,4.52-0.86,5.99-2.91c0.82-1.15,1.18-2.45,1.18-3.85
			c0-10.1,0-20.21,0-30.31c0-1.23,0.02-2.46-0.08-3.69c-0.21-2.78-2.64-5.35-5.39-5.72c-0.75-0.1-1.52-0.1-2.28-0.11
			c-3.31-0.02-6.62-0.03-9.93-0.03c-7.22,0-14.45,0.02-21.67,0.02C23.94,31.77,23.77,31.77,23.55,31.77z"/>
		<path class="st0" d="M50.17,45.09c-5.59,0-11.08,0-16.63,0c0,9.97,0,19.92,0,29.91c-3.36,0-6.65,0-9.98,0c0-13.29,0-26.56,0-39.91
			c0.2,0,0.4,0,0.6,0c10.85,0,21.7,0,32.55,0c1.97,0,3.41,1.41,3.43,3.39c0.02,1.99,0,3.99,0,5.98c0,9.05,0,18.09,0,27.14
			c0,1.79-1.32,3.34-3.11,3.4c-2.27,0.08-4.54,0.02-6.87,0.02C50.17,65.05,50.17,55.1,50.17,45.09z"/>
		<path class="st0" d="M33.49,88.33c-3.32,0-6.59,0-9.91,0c0-3.31,0-6.61,0-9.94c3.29,0,6.59,0,9.91,0
			C33.49,81.7,33.49,85.01,33.49,88.33z"/>
	</g>
</g>
</svg>
