<?xml version="1.0" encoding="utf-8"?>
<!-- Generator: Adobe Illustrator 24.1.3, SVG Export Plug-In . SVG Version: 6.00 Build 0)  -->
<svg version="1.1" id="Layer_1" xmlns="http://www.w3.org/2000/svg" xmlns:xlink="http://www.w3.org/1999/xlink" x="0px" y="0px"
	 viewBox="0 0 318 51" style="enable-background:new 0 0 318 51;" xml:space="preserve">
<style type="text/css">
	.st0{fill:#FFFFFF;}
</style>
<g>
	<g>
		<path class="st0" d="M37.8,9.5v32.1h-7.3V9.5H37.8z"/>
		<path class="st0" d="M58.4,35.7l-7.5-14.2v20.1h-7.1V9.5h7.3l9.5,18.4l9.5-18.4h7.3v32.1h-7.1V21.5l-7.5,14.2H58.4z"/>
		<path class="st0" d="M83.3,9.5h21.4v5.8H90.6v6.8h12.6V28H90.6v7.7h14.6v5.8H83.3V9.5z"/>
		<path class="st0" d="M109.5,9.5h7.1L129.3,30V9.5h7.1v32.1h-7.1L116.6,21v20.5h-7.1C109.5,41.5,109.5,9.5,109.5,9.5z"/>
		<path class="st0" d="M158.1,33c0-2.1-1-3.4-7-5c-6.7-1.9-9.6-5.3-9.6-10c0-5.3,3.9-9.1,11-9.1c4.7,0,9,1.8,11.8,5.2l-4.9,3.6
			c-1.6-1.8-3.8-2.9-6.2-2.9c-2.9,0-4.3,1.2-4.3,2.9c0,1.9,1.3,3.1,6.3,4.7c7,2.1,10.2,4.7,10.2,10.1c0,5.7-4.6,9.6-11.9,9.6
			c-5.5,0-10.1-2-13.5-5.7l5.3-3.8c2,2.2,4.7,3.7,7.9,3.7C156.3,36.3,158.1,34.9,158.1,33z"/>
		<path class="st0" d="M177.3,9.5v32.1H170V9.5H177.3z"/>
		<path class="st0" d="M196.9,42.1c-9.4,0-15.1-7.2-15.1-16.6s5.7-16.6,15.1-16.6S212,16.1,212,25.5S206.4,42.1,196.9,42.1z
			 M196.9,35.9c4.7,0,7.7-4,7.7-10.4s-3-10.4-7.7-10.4s-7.7,4-7.7,10.4S192.2,35.9,196.9,35.9z"/>
		<path class="st0" d="M216.4,9.5h7.1L236.2,30V9.5h7.1v32.1h-7.1L223.5,21v20.5h-7.1V9.5z"/>
		<path class="st0" d="M265.1,33c0-2.1-1-3.4-7-5c-6.7-1.9-9.6-5.3-9.6-10c0-5.3,3.9-9.1,11-9.1c4.7,0,9,1.8,11.8,5.2l-4.9,3.6
			c-1.6-1.8-3.8-2.9-6.2-2.9c-2.9,0-4.3,1.2-4.3,2.9c0,1.9,1.3,3.1,6.3,4.7c7,2.1,10.2,4.7,10.2,10.1c0,5.7-4.6,9.6-11.9,9.6
			c-5.5,0-10.1-2-13.5-5.7l5.3-3.8c2,2.2,4.7,3.7,7.8,3.7C263.3,36.3,265.1,34.9,265.1,33z"/>
		<path class="st0" d="M308,41.5l-6.7-11.3l-6.6,11.3h-8l10-16.5l-9.2-15.5h8l5.9,10.1l5.9-10.1h8L306,25.1l10,16.5H308z"/>
	</g>
	<g>
		<path class="st0" d="M2,13.8c0-1.6,0-3.3,0-4.8c0.1,0,0.1,0,0.2,0C7.6,9,13,9,18.4,9c2.2,0,4.1,0.9,5.6,2.6
			c1.2,1.2,1.9,2.8,2.1,4.6c0,0.3,0.1,0.7,0.1,1c0,2.9,0,5.8,0,8.7c0,2.4,0,4.8,0,7.2c0,1.7-0.4,3.4-1.5,4.7
			c-1.3,1.8-3.1,2.9-5.4,3.3c-0.4,0.1-0.9,0.1-1.3,0.1c-3.1,0-6.2,0-9.3,0c-0.1,0-0.1,0-0.2,0c0-6.4,0-12.9,0-19.3
			c1.6,0,3.1,0,4.8,0c0,4.8,0,9.6,0,14.5c0.1,0,0.2,0,0.2,0c1.5,0,2.9,0,4.4,0c1.2,0,2.1-0.4,2.9-1.5c0.4-0.6,0.6-1.2,0.6-1.9
			c0-4.9,0-9.8,0-14.7c0-0.6,0-1.2,0-1.8c-0.1-1.3-1.2-2.6-2.6-2.8c-0.3,0-0.8,0-1.1,0c-1.6,0-3.3,0-4.8,0c-3.5,0-7,0-10.4,0
			C2.2,13.8,2.1,13.8,2,13.8z"/>
		<path class="st0" d="M14.9,20.2c-2.7,0-5.4,0-8.1,0c0,4.8,0,9.6,0,14.5c-1.6,0-3.3,0-4.8,0c0-6.4,0-12.9,0-19.3c0.1,0,0.2,0,0.3,0
			c5.3,0,10.4,0,15.7,0c0.9,0,1.7,0.7,1.7,1.7s0,1.9,0,2.9c0,4.4,0,8.7,0,13.1c0,0.9-0.7,1.6-1.5,1.7c-1.1,0-2.2,0-3.4,0
			C14.9,29.9,14.9,25.1,14.9,20.2z"/>
		<path class="st0" d="M6.8,41.1c-1.6,0-3.1,0-4.8,0c0-1.6,0-3.1,0-4.8c1.6,0,3.1,0,4.8,0C6.8,37.9,6.8,39.5,6.8,41.1z"/>
	</g>
</g>
</svg>
